<svg width="40" height="40" viewBox="0 0 40 40" fill="none" xmlns="http://www.w3.org/2000/svg">
<path d="M28.3333 32.0334H8.33333V11.6667H20V8.33337H8.33333C6.5 8.33337 5 9.83337 5 11.6667V31.6667C5 33.5 6.5 35 8.33333 35H28.3333C30.1667 35 31.6667 33.5 31.6667 31.6667V20H28.3333V32.0334Z" fill="#1f4ac4"/>
<path d="M31.6666 3.33337H28.3333V8.33337H23.3333C23.3499 8.35004 23.3333 11.6667 23.3333 11.6667H28.3333V16.65C28.3499 16.6667 31.6666 16.65 31.6666 16.65V11.6667H36.6666V8.33337H31.6666V3.33337Z" fill="#1f4ac4"/>
<path d="M25.0001 15H11.6667V18.3333H25.0001V15Z" fill="#1f4ac4"/>
<path d="M11.6667 20V23.3333H25.0001V20H20.0001H11.6667Z" fill="#1f4ac4"/>
<path d="M25.0001 25H11.6667V28.3333H25.0001V25Z" fill="#1f4ac4"/>
</svg>
