<svg width="40" height="40" viewBox="0 0 40 40" fill="none" xmlns="http://www.w3.org/2000/svg">
<path d="M35.0001 8.33333C33.1501 7.75 31.1167 7.5 29.1667 7.5C25.9167 7.5 22.4167 8.16667 20.0001 10C17.5834 8.16667 14.0834 7.5 10.8334 7.5C7.58341 7.5 4.08341 8.16667 1.66675 10V34.4167C1.66675 34.8333 2.08341 35.25 2.50008 35.25C2.66675 35.25 2.75008 35.1667 2.91675 35.1667C5.16675 34.0833 8.41675 33.3333 10.8334 33.3333C14.0834 33.3333 17.5834 34 20.0001 35.8333C22.2501 34.4167 26.3334 33.3333 29.1667 33.3333C31.9167 33.3333 34.7501 33.8333 37.0834 35.0833C37.2501 35.1667 37.3334 35.1667 37.5001 35.1667C37.9167 35.1667 38.3334 34.75 38.3334 34.3333V10C37.3334 9.25 36.2501 8.75 35.0001 8.33333ZM35.0001 30.8333C33.1667 30.25 31.1667 30 29.1667 30C26.3334 30 22.2501 31.0833 20.0001 32.5V13.3333C22.2501 11.9167 26.3334 10.8333 29.1667 10.8333C31.1667 10.8333 33.1667 11.0833 35.0001 11.6667V30.8333Z" fill="#F47738"/>
<path d="M29.1667 17.5C30.6334 17.5 32.0501 17.65 33.3334 17.9333V15.4C32.0167 15.15 30.6001 15 29.1667 15C26.3334 15 23.7667 15.4833 21.6667 16.3833V19.15C23.5501 18.0833 26.1667 17.5 29.1667 17.5Z" fill="#F47738"/>
<path d="M21.6667 20.8167V23.5834C23.5501 22.5167 26.1667 21.9334 29.1667 21.9334C30.6334 21.9334 32.0501 22.0834 33.3334 22.3667V19.8333C32.0167 19.5833 30.6001 19.4333 29.1667 19.4333C26.3334 19.4333 23.7667 19.9333 21.6667 20.8167Z" fill="#F47738"/>
<path d="M29.1667 23.8833C26.3334 23.8833 23.7667 24.3666 21.6667 25.2666V28.0333C23.5501 26.9666 26.1667 26.3833 29.1667 26.3833C30.6334 26.3833 32.0501 26.5333 33.3334 26.8166V24.2833C32.0167 24.0166 30.6001 23.8833 29.1667 23.8833Z" fill="#F47738"/>
</svg>

