<svg width="40" height="40" viewBox="0 0 40 40" fill="none" xmlns="http://www.w3.org/2000/svg">
<path d="M33.3333 0H6.66659V3.33333H33.3333V0ZM6.66659 40H33.3333V36.6667H6.66659V40ZM33.3333 6.66667H6.66659C4.83325 6.66667 3.33325 8.16667 3.33325 10V30C3.33325 31.8333 4.83325 33.3333 6.66659 33.3333H33.3333C35.1666 33.3333 36.6666 31.8333 36.6666 30V10C36.6666 8.16667 35.1666 6.66667 33.3333 6.66667ZM19.9999 11.25C22.0666 11.25 23.7499 12.9333 23.7499 15C23.7499 17.0667 22.0666 18.75 19.9999 18.75C17.9333 18.75 16.2499 17.0667 16.2499 15C16.2499 12.9333 17.9333 11.25 19.9999 11.25ZM28.3333 28.3333H11.6666V25.8333C11.6666 23.05 17.2166 21.6667 19.9999 21.6667C22.7833 21.6667 28.3333 23.05 28.3333 25.8333V28.3333Z" fill="#1f4ac4"/>
</svg>
