<svg width="40" height="40" viewBox="0 0 40 40" fill="none" xmlns="http://www.w3.org/2000/svg">
<g clip-path="url(#clip0)">
<path d="M24.6491 27.1896H7.80702V7.89483H17.6316V4.73694H7.80702C6.26316 4.73694 5 6.15799 5 7.89483V26.8422C5 28.579 6.26316 30.0001 7.80702 30.0001H24.6491C26.193 30.0001 27.4561 28.579 27.4561 26.8422V15.7896H24.6491V27.1896Z" fill="#1f4ac4"/>
<path d="M27.4561 4.73703L24.6491 4.73694L20.4386 4.73703C20.4526 4.75282 20.4386 7.89493 20.4386 7.89493H24.6491V12.616C24.6632 12.6318 27.4561 12.616 27.4561 12.616V7.89493V4.73703Z" fill="#1f4ac4"/>
<path d="M21.8421 11.0529H10.614V14.2108H21.8421V11.0529Z" fill="#1f4ac4"/>
<path d="M10.614 15.7896V18.9474H21.8421V15.7896H17.6316H10.614Z" fill="#1f4ac4"/>
<path d="M21.8421 20.5265H10.614V23.6844H21.8421V20.5265Z" fill="#1f4ac4"/>
<path d="M38.789 21.4445L37.4445 20.1001C36.5779 19.2334 35.1667 19.2334 34.3001 20.1001L31.3223 23.0779L21.6667 32.7334V37.2223H26.1556L35.8667 27.5112L38.789 24.589C39.6667 23.7223 39.6667 22.3112 38.789 21.4445ZM25.2334 35.0001H23.889V33.6556L33.5112 24.0334L34.8556 25.3779L25.2334 35.0001ZM30.5556 37.2223L35.0001 32.7778H41.6667V37.2223H30.5556Z" fill="#1f4ac4"/>
</g>
<defs>
<clipPath id="clip0">
<rect width="40" height="40" fill="white"/>
</clipPath>
</defs>
</svg>
